<svg width="50" height="50" viewBox="0 0 50 50" fill="none" xmlns="http://www.w3.org/2000/svg">
<path d="M49.9968 20.8352V16.4792C49.997 15.3565 49.6948 14.2544 49.1218 13.2888C48.5488 12.3233 47.7263 11.5299 46.7408 10.9921L27.992 0.765644C27.0742 0.2633 26.0447 0 24.9984 0C23.9521 0 22.9226 0.2633 22.0048 0.765644L3.25604 10.9921C2.27047 11.5299 1.44797 12.3233 0.875012 13.2888C0.302054 14.2544 -0.000207705 15.3565 1.07084e-07 16.4792V20.8352H6.2496V39.584H2.0832V45.8336H1.07084e-07V50H49.9968V45.8336H47.9136V39.584H43.7472V20.8352H49.9968ZM29.1648 20.8352V39.584H20.832V20.8352H29.1648ZM10.416 20.8352H16.6656V39.584H10.416V20.8352ZM39.5808 39.584H33.3312V20.8352H39.5808V39.584Z" fill="#D5D5D5"/>
</svg>
