<svg width="41" height="50" viewBox="0 0 41 50" fill="none" xmlns="http://www.w3.org/2000/svg">
<path d="M20.5 0C15.0649 0.00609401 9.85411 2.21318 6.0109 6.13703C2.1677 10.0609 0.00596877 15.381 0 20.9301C0 31.9854 17.22 47.1619 19.1757 48.8572L20.5 50L21.8243 48.8572C23.78 47.1619 41 31.9854 41 20.9301C40.994 15.381 38.8323 10.0609 34.9891 6.13703C31.1459 2.21318 25.9351 0.00609401 20.5 0ZM20.5 31.3952C18.4727 31.3952 16.491 30.7814 14.8054 29.6315C13.1198 28.4816 11.806 26.8472 11.0302 24.9349C10.2544 23.0227 10.0515 20.9185 10.447 18.8885C10.8424 16.8585 11.8187 14.9938 13.2522 13.5302C14.6856 12.0666 16.512 11.0699 18.5003 10.6662C20.4886 10.2624 22.5496 10.4696 24.4225 11.2617C26.2954 12.0537 27.8963 13.3951 29.0226 15.1161C30.1488 16.837 30.75 18.8603 30.75 20.9301C30.7467 23.7046 29.6658 26.3645 27.7442 28.3264C25.8227 30.2882 23.2175 31.3919 20.5 31.3952Z" fill="#D5D5D5"/>
</svg>
