<svg width="50" height="50" viewBox="0 0 50 50" fill="none" xmlns="http://www.w3.org/2000/svg">
<path d="M49.9924 13.0116C49.9924 28.9233 28.8948 50 13.004 50C9.52588 50 6.27689 48.6879 3.88181 46.2928L1.79912 43.8977C-0.616789 41.4818 -0.616789 37.3998 1.90326 34.8797C1.96574 34.8172 6.985 30.9643 6.985 30.9643C9.48422 28.59 13.4205 28.59 15.8989 30.9643L18.9396 33.401C25.6042 30.5686 30.3319 25.8201 33.3726 18.9264L30.9567 15.8857C28.5616 13.4073 28.5616 9.45017 30.9567 6.97178C30.9567 6.97178 34.8096 1.95252 34.8721 1.89003C37.3922 -0.630012 41.4742 -0.630012 43.9943 1.89003L46.1811 3.78528C48.6803 6.26367 49.9924 9.51265 49.9924 12.9907V13.0116Z" fill="#D5D5D5"/>
</svg>
